<?xml version="1.0" encoding="UTF-8" standalone="no"?>
<svg
   xmlns:osb="http://www.openswatchbook.org/uri/2009/osb"
   xmlns:dc="http://purl.org/dc/elements/1.1/"
   xmlns:cc="http://creativecommons.org/ns#"
   xmlns:rdf="http://www.w3.org/1999/02/22-rdf-syntax-ns#"
   xmlns:svg="http://www.w3.org/2000/svg"
   xmlns="http://www.w3.org/2000/svg"
   xmlns:xlink="http://www.w3.org/1999/xlink"
   xmlns:sodipodi="http://sodipodi.sourceforge.net/DTD/sodipodi-0.dtd"
   xmlns:inkscape="http://www.inkscape.org/namespaces/inkscape"
   id="svg5753"
   version="1.1"
   viewBox="0 0 85.638458 19.557449"
   height="19.557449mm"
   width="85.638458mm"
   sodipodi:docname="restart-button.svg"
   inkscape:version="0.92.3 (2405546, 2018-03-11)">
  <sodipodi:namedview
     pagecolor="#ffffff"
     bordercolor="#666666"
     borderopacity="1"
     objecttolerance="10"
     gridtolerance="10"
     guidetolerance="10"
     inkscape:pageopacity="0"
     inkscape:pageshadow="2"
     inkscape:window-width="1920"
     inkscape:window-height="1017"
     id="namedview8887"
     showgrid="false"
     inkscape:zoom="3.509716"
     inkscape:cx="165.49134"
     inkscape:cy="36.958959"
     inkscape:window-x="-8"
     inkscape:window-y="-8"
     inkscape:window-maximized="1"
     inkscape:current-layer="layer6"
     inkscape:measure-start="57.2696,21.0843"
     inkscape:measure-end="260.42,21.0843" />
  <defs
     id="defs5747">
    <linearGradient
       gradientTransform="matrix(0.00490061,0,0,0.00490061,-9.0746283,-5.5083468)"
       id="Pale_yellow"
       osb:paint="solid">
      <stop
         style="stop-color:#fff8c0;stop-opacity:1;"
         offset="0"
         id="stop3125" />
    </linearGradient>
    <linearGradient
       gradientTransform="matrix(0.07000434,0,0,0.07000434,-11.996093,-38.32305)"
       id="Orange"
       osb:paint="solid">
      <stop
         style="stop-color:#ec8a4b;stop-opacity:1;"
         offset="0"
         id="stop1653" />
    </linearGradient>
    <linearGradient
       xlink:href="#Orange"
       id="linearGradient1657"
       x1="442.57748"
       y1="598.42896"
       x2="450.68256"
       y2="598.42896"
       gradientUnits="userSpaceOnUse"
       gradientTransform="matrix(0.28446605,0,0,0.32992835,-54.299602,-183.86265)" />
    <linearGradient
       gradientTransform="matrix(0.26458333,0,0,0.26458333,-45.339562,-144.84302)"
       xlink:href="#Yellow"
       id="linearGradient1523"
       x1="415.75177"
       y1="584.04639"
       x2="467.19962"
       y2="584.04639"
       gradientUnits="userSpaceOnUse" />
    <linearGradient
       id="Yellow"
       osb:paint="solid">
      <stop
         style="stop-color:#ffcc68;stop-opacity:1;"
         offset="0"
         id="stop1519" />
    </linearGradient>
    <linearGradient
       gradientTransform="matrix(0.26458333,0,0,0.26458333,-45.339562,-144.84302)"
       xlink:href="#Outline"
       id="linearGradient1529"
       x1="415.75177"
       y1="584.04639"
       x2="467.19962"
       y2="584.04639"
       gradientUnits="userSpaceOnUse" />
    <linearGradient
       gradientTransform="matrix(0.26458333,0,0,0.26458333,-71.963724,-145.41422)"
       id="Outline"
       osb:paint="solid">
      <stop
         style="stop-color:#101024;stop-opacity:1;"
         offset="0"
         id="stop828" />
    </linearGradient>
    <linearGradient
       id="Shading"
       osb:paint="solid"
       gradientTransform="matrix(0,0,0,0,-51.765501,-0.99954385)">
      <stop
         style="stop-color:#8bd0ba;stop-opacity:1;"
         offset="0"
         id="stop843" />
    </linearGradient>
    <linearGradient
       gradientTransform="matrix(0.26458333,0,0,0.26458333,-42.202462,-145.52694)"
       xlink:href="#Shading"
       id="linearGradient1586"
       x1="260.43393"
       y1="587.15656"
       x2="263.39407"
       y2="587.15656"
       gradientUnits="userSpaceOnUse" />
    <linearGradient
       id="Blue"
       osb:paint="solid">
      <stop
         style="stop-color:#38607c;stop-opacity:1;"
         offset="0"
         id="stop923" />
    </linearGradient>
    <linearGradient
       gradientTransform="matrix(0.26458333,0,0,0.26458333,-45.682812,-144.93851)"
       xlink:href="#Shading"
       id="linearGradient847"
       x1="183.10826"
       y1="584.70081"
       x2="280.20383"
       y2="584.70081"
       gradientUnits="userSpaceOnUse" />
    <linearGradient
       gradientTransform="matrix(0.26458333,0,0,0.26458333,-45.339562,-144.84302)"
       xlink:href="#Outline"
       id="linearGradient832"
       x1="171.36215"
       y1="584.39716"
       x2="495.03506"
       y2="584.39716"
       gradientUnits="userSpaceOnUse" />
    <linearGradient
       xlink:href="#Blue"
       id="linearGradient5743"
       gradientUnits="userSpaceOnUse"
       gradientTransform="translate(-141.16489,-531.52393)"
       x1="199.85365"
       y1="585.97412"
       x2="406.63095"
       y2="585.97412" />
    <linearGradient
       y2="585.97412"
       x2="406.63095"
       y1="585.97412"
       x1="199.85365"
       gradientTransform="matrix(0.26458333,0,0,0.26458333,16.850924,-18.639601)"
       gradientUnits="userSpaceOnUse"
       id="linearGradient6454"
       xlink:href="#Blue" />
    <linearGradient
       xlink:href="#Orange"
       id="linearGradient1657-4"
       x1="442.57748"
       y1="598.42896"
       x2="450.68256"
       y2="598.42896"
       gradientUnits="userSpaceOnUse"
       gradientTransform="matrix(0.28446606,0,0,0.32992836,-54.299603,-183.86265)" />
    <linearGradient
       gradientTransform="matrix(0.26458334,0,0,0.26458334,-45.339562,-144.84302)"
       xlink:href="#Yellow"
       id="linearGradient1523-5"
       x1="415.75177"
       y1="584.04639"
       x2="467.19962"
       y2="584.04639"
       gradientUnits="userSpaceOnUse" />
    <linearGradient
       gradientTransform="matrix(0.26458334,0,0,0.26458334,-42.202464,-145.52694)"
       xlink:href="#Shading"
       id="linearGradient1586-3"
       x1="260.43393"
       y1="587.15656"
       x2="263.39407"
       y2="587.15656"
       gradientUnits="userSpaceOnUse" />
    <linearGradient
       inkscape:collect="always"
       xlink:href="#Blue"
       id="linearGradient9522"
       gradientUnits="userSpaceOnUse"
       gradientTransform="matrix(0.26458333,0,0,0.26458333,-42.383432,-144.84302)"
       x1="199.85365"
       y1="585.97412"
       x2="406.63095"
       y2="585.97412" />
    <linearGradient
       gradientTransform="matrix(0.26458334,0,0,0.26458334,-45.682811,-144.93851)"
       xlink:href="#Shading"
       id="linearGradient847-3"
       x1="183.10826"
       y1="584.70081"
       x2="280.20383"
       y2="584.70081"
       gradientUnits="userSpaceOnUse" />
    <linearGradient
       gradientTransform="matrix(0.26458334,0,0,0.26458334,-45.339562,-144.84302)"
       xlink:href="#Outline"
       id="linearGradient832-3"
       x1="171.36215"
       y1="584.39716"
       x2="495.03506"
       y2="584.39716"
       gradientUnits="userSpaceOnUse" />
    <linearGradient
       inkscape:collect="always"
       xlink:href="#Yellow"
       id="linearGradient13434"
       gradientUnits="userSpaceOnUse"
       gradientTransform="matrix(0.26458334,0,0,0.26458334,-45.339562,-144.84302)"
       x1="415.75177"
       y1="584.04639"
       x2="467.19962"
       y2="584.04639" />
    <linearGradient
       inkscape:collect="always"
       xlink:href="#Blue"
       id="linearGradient13436"
       gradientUnits="userSpaceOnUse"
       gradientTransform="matrix(0.26458333,0,0,0.26458333,-42.383432,-144.84302)"
       x1="199.85365"
       y1="585.97412"
       x2="406.63095"
       y2="585.97412" />
    <linearGradient
       inkscape:collect="always"
       xlink:href="#Blue"
       id="linearGradient13438"
       gradientUnits="userSpaceOnUse"
       gradientTransform="matrix(0.26458333,0,0,0.26458333,-42.383432,-144.84302)"
       x1="199.85365"
       y1="585.97412"
       x2="406.63095"
       y2="585.97412" />
    <linearGradient
       inkscape:collect="always"
       xlink:href="#Blue"
       id="linearGradient13440"
       gradientUnits="userSpaceOnUse"
       gradientTransform="matrix(0.26458333,0,0,0.26458333,-42.383432,-144.84302)"
       x1="199.85365"
       y1="585.97412"
       x2="406.63095"
       y2="585.97412" />
    <linearGradient
       inkscape:collect="always"
       xlink:href="#Blue"
       id="linearGradient13442"
       gradientUnits="userSpaceOnUse"
       gradientTransform="matrix(0.26458333,0,0,0.26458333,-42.383432,-144.84302)"
       x1="199.85365"
       y1="585.97412"
       x2="406.63095"
       y2="585.97412" />
    <linearGradient
       inkscape:collect="always"
       xlink:href="#Blue"
       id="linearGradient13444"
       gradientUnits="userSpaceOnUse"
       gradientTransform="matrix(0.26458333,0,0,0.26458333,-42.383432,-144.84302)"
       x1="199.85365"
       y1="585.97412"
       x2="406.63095"
       y2="585.97412" />
    <linearGradient
       inkscape:collect="always"
       xlink:href="#Blue"
       id="linearGradient13446"
       gradientUnits="userSpaceOnUse"
       gradientTransform="matrix(0.26458333,0,0,0.26458333,-42.383432,-144.84302)"
       x1="199.85365"
       y1="585.97412"
       x2="406.63095"
       y2="585.97412" />
    <linearGradient
       inkscape:collect="always"
       xlink:href="#Blue"
       id="linearGradient13448"
       gradientUnits="userSpaceOnUse"
       gradientTransform="matrix(0.26458333,0,0,0.26458333,-42.383432,-144.84302)"
       x1="199.85365"
       y1="585.97412"
       x2="406.63095"
       y2="585.97412" />
    <linearGradient
       inkscape:collect="always"
       xlink:href="#Blue"
       id="linearGradient13450"
       gradientUnits="userSpaceOnUse"
       gradientTransform="matrix(0.26458333,0,0,0.26458333,-42.383432,-144.84302)"
       x1="199.85365"
       y1="585.97412"
       x2="406.63095"
       y2="585.97412" />
    <linearGradient
       gradientTransform="matrix(0.24435866,0,0,0.26550202,-2.7186853,-80.480007)"
       gradientUnits="userSpaceOnUse"
       y2="584.39716"
       x2="495.03506"
       y1="584.39716"
       x1="171.36215"
       id="linearGradient832-7"
       xlink:href="#Outline" />
    <linearGradient
       gradientUnits="userSpaceOnUse"
       y2="584.70081"
       x2="280.20383"
       y1="584.70081"
       x1="183.10826"
       id="linearGradient847-37"
       xlink:href="#Shading"
       gradientTransform="matrix(0.26458333,0,0,0.26458333,-6.5602503,-80.038617)" />
    <linearGradient
       inkscape:collect="always"
       xlink:href="#Blue"
       id="linearGradient13478"
       gradientUnits="userSpaceOnUse"
       gradientTransform="matrix(0.26458333,0,0,0.26458333,1.5894229,-79.871735)"
       x1="199.85365"
       y1="585.97412"
       x2="406.63095"
       y2="585.97412" />
    <linearGradient
       gradientUnits="userSpaceOnUse"
       y2="582.89081"
       x2="764.40308"
       y1="582.89081"
       x1="752.40204"
       id="linearGradient4357"
       xlink:href="#Dark_green"
       gradientTransform="matrix(0.26458333,0,0,0.26458333,-105.42077,-79.943127)" />
    <linearGradient
       osb:paint="solid"
       id="Dark_green"
       gradientTransform="matrix(0.26458333,0,0,0.26458333,-105.42077,-79.943127)">
      <stop
         id="stop4353"
         offset="0"
         style="stop-color:#5c7a56;stop-opacity:1;" />
    </linearGradient>
    <inkscape:path-effect
       effect="simplify"
       id="path-effect7671"
       is_visible="true"
       steps="1"
       threshold="0.0298883"
       smooth_angles="360"
       helper_size="0"
       simplify_individual_paths="false"
       simplify_just_coalesce="false"
       simplifyindividualpaths="false"
       simplifyJustCoalesce="false" />
  </defs>
  <metadata
     id="metadata5750">
    <rdf:RDF>
      <cc:Work
         rdf:about="">
        <dc:format>image/svg+xml</dc:format>
        <dc:type
           rdf:resource="http://purl.org/dc/dcmitype/StillImage" />
        <dc:title></dc:title>
      </cc:Work>
    </rdf:RDF>
  </metadata>
  <g
     inkscape:groupmode="layer"
     id="layer6"
     inkscape:label="Layer 1"
     style="display:inline">
    <rect
       ry="3.1485415"
       style="display:inline;opacity:1;fill:#ffffff;fill-opacity:1;fill-rule:nonzero;stroke:url(#linearGradient832-3);stroke-width:1.66499996;stroke-linecap:round;stroke-linejoin:round;stroke-miterlimit:4;stroke-dasharray:none;stroke-opacity:1;paint-order:stroke markers fill"
       id="rect826"
       width="83.973457"
       height="17.89245"
       x="0.8325004"
       y="0.83249915"
       rx="3.1485415" />
    <path
       inkscape:connector-curvature="0"
       style="display:inline;opacity:1;fill:url(#linearGradient847-3);fill-opacity:1;stroke:none;stroke-width:0.26458332px;stroke-linecap:butt;stroke-linejoin:miter;stroke-opacity:1"
       d="M 4.343982,2.7702898 C 3.689012,2.7475888 3.3666821,3.6482398 3.252422,4.1956299 2.9664019,5.56587 3.0672121,6.9739698 3.073192,8.3643798 c 0.006,1.49595 -0.1132401,2.9924702 -0.0453,4.4868802 0.0312,0.68604 0.1372399,1.36232 0.3258098,2.05098 0.1584701,0.57872 0.8584001,0.83977 1.3709901,1.09717 0.7713599,0.38734 1.6711899,0.28378 2.48137,0.53179 0.55943,0.17125 1.1137699,0.11321 1.6942099,0.1762 1.3512102,0.14663 2.7117402,0.0124 4.0684102,0.055 2.19373,0.0689 4.413839,0.41023 6.58242,0.0714 1.67989,-0.26249 3.339439,0.0576 5.058329,-0.25002 0.626001,-0.11204 1.24246,-0.12021 1.862129,-0.37589 0.737741,-0.3044 2.646842,-0.28702 2.200072,-0.9466 -0.21295,-0.31438 -0.28978,-0.67262 -0.60619,-0.88438 -0.518851,-0.34726 -1.129969,-0.57824 -1.74912,-0.73257 -0.64049,-0.15965 -1.335221,-0.0923 -1.94367,-0.36315 -0.59596,-0.26533 -1.314131,-0.17939 -1.880501,-0.49432 -0.476449,-0.26492 -1.036179,-0.3597 -1.57152,-0.40295 -0.792829,-0.0641 -1.51451,-0.53161 -2.216689,-0.88745 -1.06865,-0.54155 -1.87246,-1.45272 -2.796961,-2.2150401 C 14.715381,8.29886 13.501692,7.3319198 12.401351,6.2495898 11.921062,5.7771699 11.327571,5.4605899 10.790912,5.0108199 9.8821618,4.2491998 8.7391319,3.8347298 7.8136819,3.08283 7.217792,2.5986899 6.3895721,2.6901999 5.7017419,2.4290399 c -0.5207,-0.1977 -0.8668599,0.27117 -1.3577498,0.34126 z"
       id="path839" />
    <path
       inkscape:connector-curvature="0"
       style="display:inline;opacity:1;fill:url(#Shading);stroke:none;stroke-width:0.26458332px;stroke-linecap:butt;stroke-linejoin:miter;stroke-opacity:1"
       d="m 32.889093,14.16115 c -0.409782,-0.1239 -0.881201,-0.34887 -1.273213,-0.17287 -0.270639,0.12151 -0.564829,0.20975 -0.83598,0.34293 -0.237588,0.1167 -0.581199,0.11511 -0.715118,0.37005 -0.179941,0.34257 -0.279061,0.76592 -0.16433,1.13642 0.0769,0.24836 0.303739,0.41856 0.536591,0.45896 0.259019,0.0449 0.523279,0.0825 0.785429,0.12428 0.512259,0.0817 1.03991,0.29171 1.550468,0.17497 0.216612,-0.0495 0.370232,-0.22513 0.548212,-0.35631 0.166039,-0.12238 0.457689,-0.18886 0.484669,-0.39758 0.0349,-0.26978 0.21635,-0.50976 0.167881,-0.79356 -0.0878,-0.51416 -0.63236,-0.76844 -1.084609,-0.88729 z"
       id="path849" />
    <g
       aria-label="Try Again"
       style="font-style:normal;font-weight:normal;font-size:10.58333302px;line-height:1.25;font-family:sans-serif;letter-spacing:0px;word-spacing:0px;display:inline;opacity:1;fill:url(#linearGradient9522);fill-opacity:1;stroke:url(#Outline);stroke-width:1.66499996;stroke-linecap:round;stroke-linejoin:round;stroke-miterlimit:4;stroke-dasharray:none;stroke-opacity:1;paint-order:stroke markers fill"
       id="text915">
      <path
         inkscape:connector-curvature="0"
         d="M 11.757235,7.6197019 H 9.7781516 v -1.8415 h 6.0113334 v 1.8415 h -1.979084 v 6.0219161 h -2.053166 z"
         style="font-style:normal;font-variant:normal;font-weight:normal;font-stretch:normal;font-family:'Exo Black';-inkscape-font-specification:'Exo Black, ';letter-spacing:0.1322917px;fill:url(#linearGradient13436);fill-opacity:1;stroke:url(#Outline);stroke-width:1.66499996;stroke-linecap:round;stroke-linejoin:round;stroke-miterlimit:4;stroke-dasharray:none;stroke-opacity:1;paint-order:stroke markers fill"
         id="path9527" />
      <path
         inkscape:connector-curvature="0"
         d="m 16.345937,7.9372019 h 1.598083 l 0.455083,0.79375 q 0.296334,-0.4021667 0.624417,-0.635 0.338667,-0.2434167 0.772583,-0.2434167 0.232834,0 0.423334,0.052917 v 2.1060828 q -0.486834,-0.042333 -0.6985,-0.042333 -0.79375,0 -1.121834,0.4444995 v 3.227917 h -2.053166 z"
         style="font-style:normal;font-variant:normal;font-weight:normal;font-stretch:normal;font-family:'Exo Black';-inkscape-font-specification:'Exo Black, ';letter-spacing:0.1322917px;fill:url(#linearGradient13438);fill-opacity:1;stroke:url(#Outline);stroke-width:1.66499996;stroke-linecap:round;stroke-linejoin:round;stroke-miterlimit:4;stroke-dasharray:none;stroke-opacity:1;paint-order:stroke markers fill"
         id="path9529" />
      <path
         inkscape:connector-curvature="0"
         d="m 23.523421,13.641618 q -1.651,0 -2.00025,-1.651 L 20.644755,7.9372019 h 2.12725 l 0.645583,3.6406661 q 0.0635,0.391583 0.455083,0.41275 l 0.73025,-4.0534161 h 2.084917 l -1.449917,7.1649161 -0.529166,1.04775 h -1.735667 z"
         style="font-style:normal;font-variant:normal;font-weight:normal;font-stretch:normal;font-family:'Exo Black';-inkscape-font-specification:'Exo Black, ';letter-spacing:0.1322917px;fill:url(#linearGradient13440);fill-opacity:1;stroke:url(#Outline);stroke-width:1.66499996;stroke-linecap:round;stroke-linejoin:round;stroke-miterlimit:4;stroke-dasharray:none;stroke-opacity:1;paint-order:stroke markers fill"
         id="path9531" />
      <path
         inkscape:connector-curvature="0"
         d="m 32.073597,5.7782019 h 2.561166 l 2.328333,7.8634161 h -2.12725 l -0.3175,-1.248833 h -2.360083 l -0.306916,1.248833 h -2.106084 z m 1.968499,4.7730831 -0.709083,-3.0268331 -0.6985,3.0268331 z"
         style="font-style:normal;font-variant:normal;font-weight:normal;font-stretch:normal;font-family:'Exo Black';-inkscape-font-specification:'Exo Black, ';letter-spacing:0.1322917px;fill:url(#linearGradient13442);fill-opacity:1;stroke:url(#Outline);stroke-width:1.66499996;stroke-linecap:round;stroke-linejoin:round;stroke-miterlimit:4;stroke-dasharray:none;stroke-opacity:1;paint-order:stroke markers fill"
         id="path9533" />
      <path
         inkscape:connector-curvature="0"
         d="m 43.081751,9.0590352 -0.60325,0.1905 q 0.22225,0.3280833 0.22225,1.0054168 0,0.8255 -0.508,1.291166 -0.508,0.455083 -1.576917,0.455083 h -1.0795 q -0.1905,0 -0.306916,0.0635 -0.116417,0.0635 -0.116417,0.1905 0,0.22225 0.423333,0.22225 h 1.375834 q 1.026583,0 1.576916,0.423334 0.550333,0.41275 0.550333,1.386416 v 0.09525 q 0,0.910167 -0.550333,1.407583 -0.550333,0.497417 -1.672166,0.497417 h -1.788584 q -0.804333,0 -1.3335,-0.359833 -0.529166,-0.359834 -0.529166,-0.98425 v -0.116417 q 0,-0.391583 0.211666,-0.6985 0.22225,-0.306916 0.60325,-0.497416 -0.582083,-0.370417 -0.582083,-1.016 0,-0.433917 0.243417,-0.751417 0.254,-0.3175 0.677333,-0.423333 -0.836083,-0.53975 -0.836083,-1.6192498 0,-0.9419167 0.592666,-1.4075833 0.592667,-0.47625 1.894417,-0.47625 h 3.1115 z m -2.69875,1.4181668 q 0.264583,0 0.370417,-0.116417 0.105833,-0.127 0.105833,-0.4021665 0,-0.2751667 -0.105833,-0.381 -0.105834,-0.1164167 -0.370417,-0.1164167 h -0.582083 q -0.264584,0 -0.370417,0.1164167 -0.105833,0.1058333 -0.105833,0.381 0,0.2751665 0.105833,0.4021665 0.105833,0.116417 0.370417,0.116417 z m -0.751417,3.524249 q -0.264583,0 -0.391583,0.105834 -0.127,0.116416 -0.127,0.296333 v 0.05292 q 0,0.179916 0.127,0.296333 0.127,0.116417 0.391583,0.116417 h 0.931334 q 0.232833,0 0.381,-0.09525 0.148166,-0.09525 0.148166,-0.275167 v -0.127 q 0,-0.179917 -0.148166,-0.275167 -0.148167,-0.09525 -0.381,-0.09525 z"
         style="font-style:normal;font-variant:normal;font-weight:normal;font-stretch:normal;font-family:'Exo Black';-inkscape-font-specification:'Exo Black, ';letter-spacing:0.1322917px;fill:url(#linearGradient13444);fill-opacity:1;stroke:url(#Outline);stroke-width:1.66499996;stroke-linecap:round;stroke-linejoin:round;stroke-miterlimit:4;stroke-dasharray:none;stroke-opacity:1;paint-order:stroke markers fill"
         id="path9535" />
      <path
         inkscape:connector-curvature="0"
         d="m 45.01503,13.705118 q -0.66675,0 -1.068917,-0.391583 -0.402167,-0.391584 -0.402167,-1.058334 v -0.582083 q 0,-0.66675 0.486834,-1.068916 0.486833,-0.41275 1.4605,-0.41275 h 1.143 v -0.179917 q 0,-0.2328332 -0.07408,-0.3386665 -0.07408,-0.1164167 -0.306916,-0.15875 -0.22225,-0.052917 -0.709084,-0.052917 H 43.882613 V 8.2864519 q 0.497417,-0.1905 1.0795,-0.2963334 0.582083,-0.1164166 1.354667,-0.1164166 1.17475,0 1.767416,0.4339166 0.60325,0.4233334 0.60325,1.55575 v 3.7782495 h -1.629833 l -0.3175,-0.5715 q -0.254,0.254 -0.687917,0.4445 -0.433916,0.1905 -1.037166,0.1905 z m 1.0795,-1.397 q 0.127,0 0.28575,-0.04233 0.169333,-0.05292 0.254,-0.09525 v -1.026586 l -0.433917,0.0635 q -0.306917,0.04233 -0.455083,0.158749 -0.148167,0.116417 -0.148167,0.338667 v 0.211667 q 0,0.211666 0.127,0.306916 0.127,0.08467 0.370417,0.08467 z"
         style="font-style:normal;font-variant:normal;font-weight:normal;font-stretch:normal;font-family:'Exo Black';-inkscape-font-specification:'Exo Black, ';letter-spacing:0.1322917px;fill:url(#linearGradient13446);fill-opacity:1;stroke:url(#Outline);stroke-width:1.66499996;stroke-linecap:round;stroke-linejoin:round;stroke-miterlimit:4;stroke-dasharray:none;stroke-opacity:1;paint-order:stroke markers fill"
         id="path9537" />
      <path
         inkscape:connector-curvature="0"
         d="m 49.970011,7.2175352 q -0.116417,0 -0.1905,-0.0635 -0.0635,-0.074083 -0.0635,-0.1799166 v -1.17475 q 0,-0.127 0.0635,-0.1905 0.0635,-0.074083 0.1905,-0.074083 h 1.608667 q 0.116416,0 0.169333,0.074083 0.0635,0.074083 0.0635,0.1905 v 1.17475 q 0,0.2434166 -0.232833,0.2434166 z m -0.232833,0.7196667 h 2.053166 v 5.7044161 h -2.053166 z"
         style="font-style:normal;font-variant:normal;font-weight:normal;font-stretch:normal;font-family:'Exo Black';-inkscape-font-specification:'Exo Black, ';letter-spacing:0.1322917px;fill:url(#linearGradient13448);fill-opacity:1;stroke:url(#Outline);stroke-width:1.66499996;stroke-linecap:round;stroke-linejoin:round;stroke-miterlimit:4;stroke-dasharray:none;stroke-opacity:1;paint-order:stroke markers fill"
         id="path9539" />
      <path
         inkscape:connector-curvature="0"
         d="m 52.846034,7.9372019 h 1.7145 l 0.338667,0.5503333 q 0.28575,-0.2645833 0.73025,-0.4550833 0.455083,-0.1905 0.878416,-0.1905 1.026583,0 1.397,0.5503333 0.381,0.5503333 0.381,1.5663333 V 13.641618 H 56.2327 v -3.407833 q 0,-0.3069165 -0.148166,-0.4233332 -0.148167,-0.127 -0.41275,-0.127 -0.211667,0 -0.423333,0.09525 -0.211667,0.09525 -0.34925,0.2328332 v 3.630083 h -2.053167 z"
         style="font-style:normal;font-variant:normal;font-weight:normal;font-stretch:normal;font-family:'Exo Black';-inkscape-font-specification:'Exo Black, ';letter-spacing:0.1322917px;fill:url(#linearGradient13450);fill-opacity:1;stroke:url(#Outline);stroke-width:1.66499996;stroke-linecap:round;stroke-linejoin:round;stroke-miterlimit:4;stroke-dasharray:none;stroke-opacity:1;paint-order:stroke markers fill"
         id="path9541" />
    </g>
    <path
       inkscape:connector-curvature="0"
       style="display:inline;opacity:1;fill:url(#Shading);fill-opacity:1;stroke:none;stroke-width:0.26458332px;stroke-linecap:butt;stroke-linejoin:miter;stroke-opacity:1"
       d="m 15.228352,6.8751315 c 0.12539,0.0299 0.23738,-0.037 0.27152,-0.1756802 0.045,-0.1826098 0.18543,-0.3941199 0.0673,-0.5656098 -0.093,-0.1350502 -0.27073,-0.1244201 -0.416761,-0.11547 -0.303309,0.0186 -0.607819,0.010001 -0.911599,0.021201 -0.26722,0.010001 -0.53609,-0.0108 -0.802,0.0161 -0.11533,0.0117 -0.26255,0.0535 -0.275661,0.19479 -0.0116,0.1251101 0.02,0.2803901 0.157491,0.3339301 0.211839,0.0825 0.4451,0.2449798 0.65782,0.1672 0.13696,-0.0501 0.21208,0.0538 0.3555,0.0523 0.132159,-0.00101 0.24579,0.0618 0.38497,0.0542 0.16875,-0.009 0.35072,-0.056 0.51141,0.0171 z"
       id="path1536" />
    <path
       inkscape:connector-curvature="0"
       style="display:inline;opacity:1;fill:url(#Shading);fill-opacity:1;stroke:none;stroke-width:0.26458332px;stroke-linecap:butt;stroke-linejoin:miter;stroke-opacity:1"
       d="m 17.803342,8.7740215 c 0.0264,-0.1634501 0.0978,-0.3290401 0.0653,-0.4936802 -0.0167,-0.0844 -0.10282,-0.1335199 -0.170099,-0.1760099 -0.10664,-0.0674 -0.25146,-0.0567 -0.34859,0.0249 -0.0535,0.0449 -0.11697,0.0727 -0.18233,0.0967 -0.0733,0.0269 -0.13541,0.0733 -0.19514,0.12373 -0.0633,0.0534 -0.10662,0.1200801 -0.14718,0.1977901 -0.0332,0.0636 -0.0289,0.1243099 -0.0427,0.1959499 -0.0171,0.089 0.0956,0.10644 0.156321,0.12687 0.19213,0.0646 0.39184,0.10487 0.59383,0.1304801 0.0693,0.009 0.1315,-0.0266 0.168199,-0.0884 0.0292,-0.0492 0.0556,-0.1033701 0.102361,-0.1383401 z"
       id="path1540" />
    <path
       inkscape:connector-curvature="0"
       style="display:inline;opacity:1;fill:url(#Shading);stroke:none;stroke-width:0.26458332px;stroke-linecap:butt;stroke-linejoin:miter;stroke-opacity:1"
       d="m 20.144911,9.1277713 c -0.017,-0.21736 -0.033,-0.4423199 -0.12593,-0.6419999 -0.039,-0.0839 -0.0958,-0.1608 -0.179199,-0.2098302 -0.0458,-0.0269 -0.0847,-0.0603 -0.14403,-0.0627 -0.0717,-0.003 -0.14552,0.00201 -0.21377,-0.0304 -0.0888,-0.0418 -0.200961,-0.0539 -0.285271,0.006 -0.0726,0.0513 -0.145049,0.123 -0.157459,0.2095299 -0.0108,0.0754 0.0192,0.1496999 0.0487,0.21732 0.0622,0.14259 0.1418,0.27822 0.23866,0.4006699 0.0451,0.057 0.11723,0.0774 0.182,0.1024501 0.10464,0.0404 0.20711,0.0845 0.3077,0.1361001 0.0541,0.0278 0.11439,0.0754 0.17476,0.0561 0.042,-0.013401 0.0642,-0.0569 0.0883,-0.0909 0.0218,-0.0307 0.043,-0.0621 0.0655,-0.0922 z"
       id="path1554" />
    <path
       inkscape:connector-curvature="0"
       style="display:inline;opacity:0.45899999;fill:none;stroke:none;stroke-width:0.26458332px;stroke-linecap:butt;stroke-linejoin:miter;stroke-opacity:1"
       d="m 23.265082,9.2836199 c 0.14493,-0.33542 0.34231,-0.6456202 0.48772,-0.98043 0.0927,-0.21345 0.200199,-0.4319601 0.21003,-0.66621 0.003,-0.0711 0.0228,-0.1972101 -0.0585,-0.21194 -0.0656,-0.011901 -0.12514,-0.0409 -0.190001,-0.0564 -0.200129,-0.0479 -0.43008,-0.008 -0.585379,0.1269402 -0.12458,0.1084599 -0.196211,0.26371 -0.256921,0.4135398 -0.119609,0.2952102 -0.213039,0.6084203 -0.21707,0.9280401 -0.002,0.15781 -0.0135,0.3564602 0.115681,0.4600199 0.0543,0.0435 0.13262,0.0296 0.197419,0.0249 0.0996,-0.007 0.199171,-0.018899 0.297071,-0.0385 z"
       id="path1558" />
    <path
       inkscape:connector-curvature="0"
       style="display:inline;opacity:1;fill:url(#Shading);stroke:none;stroke-width:0.26458332px;stroke-linecap:butt;stroke-linejoin:miter;stroke-opacity:1"
       d="m 25.339681,8.7970214 c -0.0403,0.2843499 -0.232089,0.4882399 -0.277809,0.7952 -0.0407,0.27316 0.005,0.6901496 0.37313,0.6168496 0.337749,-0.0673 0.614309,-0.3635195 0.706589,-0.6716996 0.0988,-0.3299899 0.196331,-0.6570401 0.284061,-0.9935102 0.0677,-0.2597099 0.0343,-0.4162398 -0.317621,-0.4849098 -0.372969,-0.0728 -0.550019,0.2846999 -0.68701,0.5683398 -0.0273,0.0565 -0.0534,0.1136301 -0.0813,0.1697302 z"
       id="path1566" />
    <path
       inkscape:connector-curvature="0"
       style="display:inline;opacity:1;fill:url(#linearGradient1586-3);fill-opacity:1;stroke:none;stroke-width:0.26458332px;stroke-linecap:butt;stroke-linejoin:miter;stroke-opacity:1"
       d="m 25.554991,10.622551 c -0.12001,-0.0217 -0.23753,0.0529 -0.286849,0.16044 -0.0501,0.10934 -0.119641,0.23124 -0.0865,0.35358 0.0361,0.13356 0.195319,0.16802 0.31676,0.15835 0.177399,-0.0141 0.36718,-0.11285 0.42307,-0.29334 0.0331,-0.10692 -0.0404,-0.23804 0.0204,-0.33365 0.0374,-0.0587 -0.0765,-0.0102 -0.1362,-0.0433 -0.0747,-0.0414 -0.17629,-0.0473 -0.25066,-0.002 z"
       id="path1578" />
    <path
       inkscape:connector-curvature="0"
       style="display:inline;opacity:1;fill:url(#Shading);stroke:none;stroke-width:0.26458332px;stroke-linecap:butt;stroke-linejoin:miter;stroke-opacity:1"
       d="m 33.784432,7.2834315 c -0.0622,-0.3356401 -0.0669,-0.6785301 -0.0629,-1.01941 0.0021,-0.1971403 0.197569,-0.24506 0.378237,-0.3157802 0.206531,-0.0808 0.305282,0.1284801 0.374052,0.2810401 0.191479,0.4247899 0.29931,0.8857301 0.34824,1.3503299 0.02468,0.2350101 -0.226629,0.34958 -0.434081,0.3574201 -0.203779,0.008 -0.372891,-0.1243901 -0.450271,-0.3215301 -0.0446,-0.1135298 -0.0897,-0.2275899 -0.15331,-0.3320698 z"
       id="path1592" />
    <path
       inkscape:connector-curvature="0"
       style="display:inline;opacity:1;fill:url(#Shading);fill-opacity:1;stroke:none;stroke-width:0.26458332px;stroke-linecap:butt;stroke-linejoin:miter;stroke-opacity:1"
       d="m 34.71368,8.2955913 c -0.145838,-0.0633 -0.317198,0.0662 -0.317248,0.21824 -5.1e-5,0.1612 -0.0975,0.4380201 0.0631,0.48069 0.0966,0.025699 0.164629,0.1035402 0.266909,0.1289499 0.11734,0.0292 0.311449,0.0369 0.343699,-0.0898 0.0245,-0.0961 0.02109,-0.18904 0.0573,-0.28937 0.0459,-0.12743 -0.0104,-0.2711101 -0.119308,-0.3494501 -0.0851,-0.0612 -0.189691,-0.0971 -0.294392,-0.0993 z"
       id="path1596" />
    <path
       inkscape:connector-curvature="0"
       style="display:inline;opacity:1;fill:url(#Shading);fill-opacity:1;stroke:none;stroke-width:0.26458332px;stroke-linecap:butt;stroke-linejoin:miter;stroke-opacity:1"
       d="m 42.387872,10.760861 c 0.0412,-0.12816 0.135742,-0.31382 0.0359,-0.4013 -0.0643,-0.0564 -0.0779,-0.15876 -0.148781,-0.22475 -0.141449,-0.13174 -0.41103,-0.1595597 -0.52289,-0.0146 -0.0892,0.1156 -0.0893,0.27184 -0.11624,0.41109 -0.0222,0.11444 0.0667,0.18647 0.11566,0.28359 0.0554,0.11003 0.18393,0.077 0.28892,0.0969 0.135601,0.0257 0.22013,-0.091 0.32802,-0.14483 0,0 0.01939,-0.006 0.01939,-0.006 0,0 0,-4e-5 0,-4e-5 z"
       id="path1604" />
    <path
       inkscape:connector-curvature="0"
       style="display:inline;opacity:1;fill:url(#Shading);stroke:none;stroke-width:0.26458332px;stroke-linecap:butt;stroke-linejoin:miter;stroke-opacity:1"
       d="m 48.428733,9.4460214 c -0.0487,-0.2471201 -0.0943,-0.50755 -0.270229,-0.7043301 -0.148611,-0.16622 -0.29971,-0.4846098 -0.51789,-0.42647 -0.123571,0.0329 -0.393131,-0.071 -0.411491,0.0625 -0.055,0.40029 -0.045,0.84283 0.180959,1.1927899 0.111371,0.17248 0.32231,0.2223402 0.497912,0.30027 0.2091,0.0928 0.32462,-0.1327801 0.4197,-0.26763 0.0359,-0.0509 0.0685,-0.10404 0.101039,-0.15709 z"
       id="path1612" />
    <path
       inkscape:connector-curvature="0"
       style="display:inline;opacity:1;fill:url(#Shading);stroke:none;stroke-width:0.26458332px;stroke-linecap:butt;stroke-linejoin:miter;stroke-opacity:1"
       d="m 51.524223,6.3996615 c 0.0629,-0.1566701 0.14927,-0.3238802 0.11779,-0.4966502 -0.02371,-0.1303499 -0.16547,-0.1885799 -0.28317,-0.1951199 -0.141999,-0.008 -0.297968,-0.0323 -0.427659,0.0352 -0.1088,0.0566 -0.0952,0.19929 -0.063,0.2970601 0.0483,0.14658 0.101449,0.3240001 0.241199,0.3945999 0.109839,0.0555 0.238512,0.0127 0.34951,-0.017499 0.02169,-0.006 0.0432,-0.012999 0.0653,-0.0176 z"
       id="path1616" />
    <path
       inkscape:connector-curvature="0"
       style="display:inline;opacity:1;fill:url(#Shading);stroke:none;stroke-width:0.26458332px;stroke-linecap:butt;stroke-linejoin:miter;stroke-opacity:1"
       d="m 51.546734,9.9759413 c 0.0765,-0.3310099 0.0426,-0.6714199 0.057,-1.0087499 0.0104,-0.2431301 0.0315,-0.5681599 -0.201879,-0.70329 -0.207582,-0.1201801 -0.444701,0.0701 -0.524672,0.2582 -0.0988,0.23242 -0.0981,0.4934 -0.0979,0.74158 1.98e-4,0.2296998 -0.0869,0.4903099 0.02609,0.6920201 0.11041,0.1971095 0.260752,0.3195595 0.524002,0.2937795 0.13417,-0.0131 0.154069,-0.18328 0.217268,-0.2735397 z"
       id="path1620" />
    <path
       inkscape:connector-curvature="0"
       style="display:inline;opacity:1;fill:url(#Shading);stroke:none;stroke-width:0.26458332px;stroke-linecap:butt;stroke-linejoin:miter;stroke-opacity:1"
       d="m 57.780114,8.7285314 c -0.01019,-0.18313 -0.218141,-0.30866 -0.333992,-0.41631 -0.140988,-0.13101 -0.317039,-0.2513901 -0.529828,-0.23936 -0.220411,0.012499 -0.241519,0.2466099 -0.261961,0.43357 -0.02641,0.24179 0.125442,0.44347 0.254011,0.63031 0.13078,0.19006 0.22149,0.4389999 0.427029,0.5447999 0.197781,0.1018 0.350891,-0.0666 0.39533,-0.2605001 0.052,-0.2266698 0.0499,-0.4615299 0.0494,-0.6925098 z"
       id="path1624" />
    <path
       inkscape:connector-curvature="0"
       style="display:inline;opacity:1;fill:url(#Shading);stroke:none;stroke-width:0.26458332px;stroke-linecap:butt;stroke-linejoin:miter;stroke-opacity:1"
       d="m 54.509523,8.2386215 c -0.0786,-0.0507 -0.182118,-0.0347 -0.24582,-0.10952 -0.0694,-0.0815 -0.18016,-0.0717 -0.27251,-0.0342 -0.148788,0.0604 -0.278601,0.2103401 -0.250759,0.38413 0.02209,0.13803 0.13665,0.2420401 0.256289,0.2790198 0.141049,0.0436 0.292261,0.003 0.437801,0.00201 0.11662,-7.938e-4 0.149378,-0.1144501 0.160909,-0.2090502 0.009,-0.077 -0.0336,-0.3317201 -0.0479,-0.23972 -0.01611,0.1034601 -0.0241,-0.0568 -0.038,-0.0729 z"
       id="path1628" />
    <path
       inkscape:connector-curvature="0"
       style="display:inline;opacity:1;fill:url(#linearGradient13434);fill-opacity:1;stroke:url(#Outline);stroke-width:1.66499996;stroke-linecap:round;stroke-linejoin:round;stroke-miterlimit:4;stroke-dasharray:none;stroke-opacity:1;paint-order:stroke markers fill"
       d="m 70.937685,14.73278 c -0.430472,-0.0778 -0.696871,-0.39824 -0.768242,-0.92396 -0.02209,-0.16255 -0.0109,-0.48933 0.0209,-0.61089 0.0808,-0.30936 0.288451,-0.5404 0.596392,-0.6637 0.170889,-0.0684 0.322048,-0.0934 0.650298,-0.10735 0.235741,-0.01 0.326681,-0.0197 0.44568,-0.0474 0.220732,-0.0514 0.368091,-0.099 0.55304,-0.17864 0.318011,-0.13694 0.57453,-0.3104 0.80585,-0.54493 0.382151,-0.38744 0.587131,-0.83171 0.712211,-1.54365 0.0337,-0.1920402 0.0376,-0.2467801 0.0379,-0.5441302 5.29e-4,-0.36623 -0.0186,-0.5070298 -0.103751,-0.76805 -0.0833,-0.25522 -0.15354,-0.3800301 -0.47453,-0.8427998 -0.2544,-0.3667803 -0.56637,-0.6319301 -0.973011,-0.8270103 -0.372049,-0.1784699 -0.720079,-0.2552298 -1.15729,-0.2552298 -0.730268,0 -1.445678,0.2523999 -1.921378,0.67787 -0.479411,0.4287901 -0.793321,1.03974 -0.907132,1.7654699 -0.0362,0.23066 -0.0481,0.2292 0.217832,0.0266 0.12737,-0.097 0.25445,-0.1903301 0.2824,-0.2074 0.1606,-0.098 0.482759,-0.1413401 0.696849,-0.0937 0.210249,0.0468 0.40648,0.17525 0.56931,0.3727501 0.156741,0.1900999 0.24707,0.35428 0.28616,0.5200599 0.0265,0.1121902 0.02619,0.3136602 -5.29e-4,0.4171602 -0.0437,0.16926 -0.157491,0.36293 -0.284052,0.48343 -0.0329,0.0313 -0.394549,0.33158 -0.80368,0.66726 -0.40913,0.33568 -0.85848,0.70605 -0.998548,0.82304 -0.376851,0.31474 -0.538011,0.41378 -0.792501,0.48706 -0.156549,0.0451 -0.43416,0.0454 -0.589219,7.93e-4 -0.127971,-0.0369 -0.268772,-0.10565 -0.36204,-0.176809 -0.0373,-0.0285 -0.57055,-0.47184 -1.184942,-0.985251 l -1.117071,-0.933463 -0.0438,-0.0979 c -0.245478,-0.54901 -0.15049,-1.0391602 0.261551,-1.3496402 0.28244,-0.2128301 0.578969,-0.2947199 0.878469,-0.2425999 0.247402,0.043 0.4176,0.13355 0.65921,0.3505099 l 0.141189,0.1268 V 9.3584699 c 0,-0.25171 0.044,-0.5642199 0.12564,-0.89233 0.045,-0.1810502 0.26475,-0.84347 0.33836,-1.02019 0.16551,-0.3973301 0.492943,-0.8557702 0.905312,-1.26751 0.269668,-0.2692601 0.515091,-0.47049 0.820981,-0.6731302 C 68.728512,5.32843 68.861751,5.25311 69.180151,5.0991 c 0.65116,-0.3149701 1.22206,-0.4588301 1.90006,-0.4788001 0.65864,-0.019399 1.242851,0.089 1.927161,0.35741 0.299109,0.11733 0.85149,0.39687 1.065761,0.5393299 0.657219,0.4369602 1.161079,1.02367 1.556668,1.81264 0.423571,0.8447601 0.56188,1.4392299 0.54165,2.32804 -0.0273,1.1986402 -0.41133,2.3089202 -1.095921,3.1683302 -0.138639,0.17404 -0.427458,0.46085 -0.614849,0.61057 -0.170079,0.13589 -0.514609,0.36864 -0.703569,0.4753 -0.52805,0.29808 -1.19733,0.55769 -1.817701,0.70509 -0.0983,0.0233 -0.237599,0.0573 -0.309571,0.0755 -0.254719,0.0643 -0.485378,0.0777 -0.692168,0.0403 z"
       id="path1486" />
    <path
       inkscape:connector-curvature="0"
       style="opacity:1;fill:url(#linearGradient1657-4);fill-opacity:1;stroke:none;stroke-width:0.30635503px;stroke-linecap:butt;stroke-linejoin:miter;stroke-opacity:1"
       d="m 72.544422,13.13546 c -0.213547,-0.14501 -0.435319,-0.23743 -0.704818,-0.30026 -0.25677,-0.0599 -0.531601,-0.16955 -0.787011,-0.0824 -0.233619,0.0797 -0.42332,0.2195 -0.478589,0.47986 -0.0562,0.26478 -0.166621,0.58083 -0.01339,0.81721 0.15198,0.23443 0.44132,0.19081 0.65292,0.24792 0.242621,0.0655 0.50232,0.0209 0.750959,0.0172 0.288423,-0.004 0.491012,-0.2196 0.587603,-0.46122 0.0906,-0.22665 0.104849,-0.50025 -0.008,-0.71832 0,0 -1.1e-5,3e-5 -1.1e-5,3e-5 z"
       id="path1649" />
    <path
       inkscape:connector-curvature="0"
       style="opacity:1;fill:url(#Orange);stroke:none;stroke-width:0.26458332px;stroke-linecap:butt;stroke-linejoin:miter;stroke-opacity:1"
       d="m 66.556174,9.9610299 c 0.0105,-0.3337301 0.02529,-0.6686 0.0916,-0.99608 0.0851,-0.42031 0.11521,-0.87454 0.33555,-1.24323 0.128359,-0.2147801 0.337481,-0.4440899 0.584419,-0.3604099 0.232632,0.0788 0.184502,0.3949697 0.196361,0.5962798 0.0164,0.2782102 0.218741,0.6418501 0.0204,0.8386202 -0.0971,0.0963 -0.067,0.37323 -0.0958,0.5519798 -0.0386,0.23988 -0.0682,0.4779301 -0.127072,0.7116602 -0.115811,0.45947 -0.128889,0.94827 -0.02421,1.40303 0.0517,0.22435 0.0223,0.7246 -0.31805,0.56528 -0.23458,-0.1098 -0.50682,-0.13814 -0.716572,-0.2866 C 66.266192,11.57408 66.03748,11.40128 65.839601,11.1811 65.6025,10.91727 65.216481,10.84914 65.0105,10.53775 64.86835,10.32285 64.9304,10.0659 64.966,9.8057698 c 0.0426,-0.31076 0.362482,-0.2832 0.59373,-0.21413 0.241851,0.0722 0.401741,0.3560501 0.678432,0.3482901 0.12936,-0.004 0.294428,0.2669501 0.317838,0.021101 z"
       id="path1671" />
    <path
       inkscape:connector-curvature="0"
       style="opacity:1;fill:url(#Pale_yellow);fill-opacity:1;stroke:none;stroke-width:0.26458332px;stroke-linecap:butt;stroke-linejoin:miter;stroke-opacity:1"
       d="m 73.693783,6.0427499 c 0.0191,-0.14102 -0.042,-0.2872002 -0.16183,-0.36728 C 73.414843,5.5971699 73.302313,5.5118 73.181944,5.43858 72.938173,5.2902998 72.673743,5.1553398 72.386784,5.1234099 c -0.12277,-0.0137 -0.228762,0.13559 -0.35037,0.0959 -0.10216,-0.0333 -0.114411,0.11528 -0.129172,0.1839798 -0.0259,0.1203601 0.0231,0.2393501 0.0968,0.3337301 0.0705,0.0904 0.14823,0.25424 0.26044,0.2245799 0.114202,-0.0302 0.103711,0.1007401 0.182361,0.1360001 0.0985,0.0442 0.180319,0.1284301 0.28802,0.1451398 0.1026,0.015902 0.19594,0.0656 0.264179,0.1419702 0.0751,0.084 0.196691,0.0529 0.28735,0.0988 0.102201,0.0518 0.18083,-0.0147 0.238951,-0.1009798 0.0709,-0.1051701 0.12161,-0.2227803 0.168471,-0.3398602 z"
       id="path1675" />
    <path
       inkscape:connector-curvature="0"
       style="opacity:1;fill:url(#Pale_yellow);stroke:none;stroke-width:0.26458332px;stroke-linecap:butt;stroke-linejoin:miter;stroke-opacity:1"
       d="m 74.583333,6.8687699 c -0.100351,-0.0942 -0.234698,-0.16993 -0.376179,-0.1512301 -0.0661,0.009 -0.143441,0.020201 -0.181811,0.0827 -0.0445,0.0724 -0.0664,0.1563499 -0.086,0.23823 -0.0241,0.10111 -0.02151,0.21796 0.049,0.3011199 0.0808,0.0953 0.157869,0.21341 0.27723,0.2493 0.0616,0.0185 0.126249,-2.911e-4 0.190191,0.00201 0.0581,0.00201 0.126838,0.0296 0.175807,-0.006 0.0693,-0.05 0.0917,-0.1408998 0.104482,-0.2202799 0.02069,-0.12833 0.0289,-0.2649601 -0.01561,-0.38857 -0.0205,-0.0568 -0.0903,-0.0775 -0.137141,-0.108 z"
       id="path3131" />
    <path
       inkscape:connector-curvature="0"
       style="opacity:0.45899999;fill:none;stroke:none;stroke-width:0.26458332px;stroke-linecap:butt;stroke-linejoin:miter;stroke-opacity:1"
       d="m 40.951153,6.8567199 c 0.525031,0.008 1.078,-0.13624 1.575261,0.0353 0.155609,0.0537 0.34849,0.27881 0.275039,0.40624 -0.11431,0.19831 -0.361839,0.1728599 -0.55449,0.2545501 -0.217699,0.0923 -0.520509,0.2736601 -0.699529,-0.014499 -0.131612,-0.21189 -0.474281,-0.25023 -0.545081,-0.4784799 -0.02069,-0.0668 -0.01601,-0.14053 -0.0512,-0.2030902 z"
       id="path916" />
    <path
       inkscape:connector-curvature="0"
       style="opacity:1;fill:#8bd0ba;fill-opacity:1;stroke:none;stroke-width:0.26458332px;stroke-linecap:butt;stroke-linejoin:miter;stroke-opacity:1"
       d="m 42.085382,9.0284414 c 0.34417,-0.069 0.804061,-0.36591 0.594651,-0.69918 -0.192619,-0.3065399 -0.672309,-0.1952501 -1.02657,-0.2233001 -0.422939,-0.0335 -1.303464,8.202e-4 -0.981361,0.5208 0.237932,0.38409 0.71941,0.8201001 1.174801,0.5804 0.0817,-0.043 0.13743,-0.14665 0.238479,-0.1787199 z"
       id="path928" />
    <path
       inkscape:connector-curvature="0"
       style="opacity:1;fill:#8bd0ba;fill-opacity:1;stroke:none;stroke-width:0.26458332px;stroke-linecap:butt;stroke-linejoin:miter;stroke-opacity:1"
       d="m 42.427354,13.236021 c -0.57684,-1.14825 -1.616822,-0.0319 -0.42113,0.60753 0.427228,0.22846 0.553739,-0.31373 0.42113,-0.60753 z"
       id="path932" />
  </g>
</svg>
