<?xml version="1.0" encoding="UTF-8" standalone="no"?>
<svg
   xmlns:osb="http://www.openswatchbook.org/uri/2009/osb"
   xmlns:dc="http://purl.org/dc/elements/1.1/"
   xmlns:cc="http://creativecommons.org/ns#"
   xmlns:rdf="http://www.w3.org/1999/02/22-rdf-syntax-ns#"
   xmlns:svg="http://www.w3.org/2000/svg"
   xmlns="http://www.w3.org/2000/svg"
   xmlns:xlink="http://www.w3.org/1999/xlink"
   id="svg8102"
   version="1.1"
   viewBox="0 0 79.157425 19.557447"
   height="19.557447mm"
   width="79.157425mm">
  <defs
     id="defs8096">
    <linearGradient
       id="Shading"
       osb:paint="solid"
       gradientTransform="matrix(1.0234553e-8,0,0,0,599.48138,909.59783)">
      <stop
         style="stop-color:#8bd0ba;stop-opacity:1;"
         offset="0"
         id="stop843" />
    </linearGradient>
    <linearGradient
       id="Pale_yellow"
       osb:paint="solid"
       gradientTransform="matrix(0.07000434,0,0,0.07000434,61.695559,53.28853)">
      <stop
         style="stop-color:#fff8c0;stop-opacity:1;"
         offset="0"
         id="stop3125" />
    </linearGradient>
    <linearGradient
       gradientTransform="matrix(0.26458333,0,0,0.26458333,-101.72324,-79.871735)"
       id="Dark_green"
       osb:paint="solid">
      <stop
         style="stop-color:#5c7a56;stop-opacity:1;"
         offset="0"
         id="stop4353" />
    </linearGradient>
    <linearGradient
       gradientTransform="matrix(0.26458333,0,0,0.26458333,-101.72324,-79.871735)"
       xlink:href="#Dark_green"
       id="linearGradient4357"
       x1="752.40204"
       y1="582.89081"
       x2="764.40308"
       y2="582.89081"
       gradientUnits="userSpaceOnUse" />
    <linearGradient
       id="Outline"
       osb:paint="solid"
       gradientTransform="matrix(0.07000434,0,0,0.07000434,92.70023,93.30073)">
      <stop
         style="stop-color:#101024;stop-opacity:1;"
         offset="0"
         id="stop828" />
    </linearGradient>
    <linearGradient
       id="Blue"
       osb:paint="solid">
      <stop
         style="stop-color:#38607c;stop-opacity:1;"
         offset="0"
         id="stop923" />
    </linearGradient>
    <linearGradient
       gradientTransform="matrix(0.26458333,0,0,0.26458333,-2.8627161,-79.967225)"
       xlink:href="#Shading"
       id="linearGradient847"
       x1="183.10826"
       y1="584.70081"
       x2="280.20383"
       y2="584.70081"
       gradientUnits="userSpaceOnUse" />
    <linearGradient
       xlink:href="#Outline"
       id="linearGradient832"
       x1="171.36215"
       y1="584.39716"
       x2="495.03506"
       y2="584.39716"
       gradientUnits="userSpaceOnUse"
       gradientTransform="matrix(0.24435866,0,0,0.26550202,0.97884894,-80.408615)" />
    <linearGradient
       xlink:href="#Blue"
       id="linearGradient8092"
       gradientUnits="userSpaceOnUse"
       gradientTransform="translate(-142.03795,-534.90549)"
       x1="199.85365"
       y1="585.97412"
       x2="406.63095"
       y2="585.97412" />
    <linearGradient
       y2="585.97412"
       x2="406.63095"
       y1="585.97412"
       x1="199.85365"
       gradientTransform="matrix(0.26458333,0,0,0.26458333,1.5894229,-79.871735)"
       gradientUnits="userSpaceOnUse"
       id="linearGradient8781"
       xlink:href="#Blue" />
  </defs>
  <metadata
     id="metadata8099">
    <rdf:RDF>
      <cc:Work
         rdf:about="">
        <dc:format>image/svg+xml</dc:format>
        <dc:type
           rdf:resource="http://purl.org/dc/dcmitype/StillImage" />
        <dc:title></dc:title>
      </cc:Work>
    </rdf:RDF>
  </metadata>
  <g
     transform="translate(-42.820099,-64.971275)"
     id="layer1">
    <rect
       rx="2.9078679"
       y="65.772713"
       x="43.621536"
       height="17.954573"
       width="77.55455"
       id="rect826"
       style="display:inline;opacity:1;fill:#ffffff;fill-opacity:1;fill-rule:nonzero;stroke:url(#linearGradient832);stroke-width:1.60287464;stroke-linecap:round;stroke-linejoin:round;stroke-miterlimit:4;stroke-dasharray:none;stroke-opacity:1;paint-order:stroke markers fill"
       ry="2.9078679" />
    <path
       id="path839"
       d="m 47.164087,67.741565 c -0.654974,-0.0227 -0.977297,0.87796 -1.09156,1.42535 -0.28602,1.37023 -0.185208,2.77833 -0.179231,4.16874 0.0064,1.49595 -0.113242,2.99247 -0.04531,4.48688 0.03118,0.686041 0.137223,1.362329 0.325823,2.050981 0.158491,0.5787 0.858407,0.839769 1.371,1.097169 0.771361,0.38734 1.671196,0.283779 2.481381,0.531789 0.559425,0.171251 1.113767,0.113212 1.694204,0.176202 1.351206,0.146629 2.711736,0.01241 4.068408,0.055 2.193727,0.0689 4.413838,0.410231 6.582418,0.0714 1.679895,-0.26249 3.339446,0.0576 5.05833,-0.25002 0.625999,-0.112041 1.242465,-0.120209 1.862128,-0.375889 0.737746,-0.3044 2.646889,-0.287062 2.200069,-0.946602 -0.212985,-0.314378 -0.289881,-0.672658 -0.606227,-0.884378 -0.518864,-0.34725 -1.12998,-0.578231 -1.749127,-0.73257 -0.640482,-0.15966 -1.335223,-0.0923 -1.943669,-0.363151 -0.595956,-0.26533 -1.314114,-0.17941 -1.880493,-0.49432 -0.476449,-0.26491 -1.036185,-0.3597 -1.571522,-0.40295 -0.792824,-0.0641 -1.51451,-0.53159 -2.216682,-0.88744 -1.068639,-0.54157 -1.872462,-1.45274 -2.796958,-2.21505 -1.191607,-0.982561 -2.405327,-1.949481 -3.505639,-3.031831 -0.480282,-0.47244 -1.073783,-0.78901 -1.610442,-1.23878 -0.908746,-0.76162 -2.051794,-1.17608 -2.977227,-1.92799 -0.595881,-0.48415 -1.424104,-0.39262 -2.111941,-0.65379 -0.520687,-0.1977 -0.866876,0.27117 -1.357731,0.34126 z"
       style="display:inline;opacity:1;fill:url(#linearGradient847);fill-opacity:1;stroke:none;stroke-width:0.26458332px;stroke-linecap:butt;stroke-linejoin:miter;stroke-opacity:1" />
    <path
       id="path849"
       d="m 77.231022,79.301516 c -0.409781,-0.123901 -0.881208,-0.348882 -1.273212,-0.172871 -0.270645,0.121521 -0.564832,0.209749 -0.83598,0.34293 -0.237591,0.116699 -0.58121,0.115109 -0.715119,0.370051 -0.179937,0.342569 -0.279074,0.765929 -0.16433,1.13642 0.07692,0.248359 0.303729,0.41856 0.536578,0.458959 0.259027,0.0449 0.523296,0.0824 0.785447,0.12428 0.512252,0.0817 1.039906,0.291719 1.550467,0.17498 0.216619,-0.0495 0.370239,-0.225121 0.548208,-0.356309 0.166042,-0.122391 0.45769,-0.18887 0.484672,-0.397582 0.0349,-0.26979 0.216339,-0.50977 0.167878,-0.79357 -0.0878,-0.514159 -0.632349,-0.76844 -1.084609,-0.887288 z"
       style="display:inline;opacity:1;fill:url(#Shading);stroke:none;stroke-width:0.26458332px;stroke-linecap:butt;stroke-linejoin:miter;stroke-opacity:1" />
    <g
       id="text915"
       style="font-style:normal;font-weight:normal;font-size:10.58333302px;line-height:1.25;font-family:sans-serif;letter-spacing:0px;word-spacing:0px;display:inline;opacity:1;fill:url(#linearGradient8781);fill-opacity:1;stroke:url(#Outline);stroke-width:1.66499996;stroke-linecap:round;stroke-linejoin:round;stroke-miterlimit:4;stroke-dasharray:none;stroke-opacity:1;paint-order:stroke markers fill"
       aria-label="Submit">
      <path
         id="path10374"
         style="font-style:normal;font-variant:normal;font-weight:normal;font-stretch:normal;font-family:'Exo Black';-inkscape-font-specification:'Exo Black, ';letter-spacing:0.1322917px;fill:url(#linearGradient8781);fill-opacity:1;stroke:url(#Outline);stroke-width:1.66499996;stroke-linecap:round;stroke-linejoin:round;stroke-miterlimit:4;stroke-dasharray:none;stroke-opacity:1;paint-order:stroke markers fill"
         d="m 57.500743,78.413003 q -1.354666,0 -2.529416,-0.306917 v -1.629833 q 1.058333,0.09525 2.423583,0.09525 0.53975,0 0.79375,-0.116417 0.254,-0.127 0.254,-0.423333 v -0.127 q 0,-0.22225 -0.15875,-0.338667 -0.15875,-0.127 -0.391583,-0.127 H 57.33141 q -1.259417,0 -1.883833,-0.550333 -0.613833,-0.560917 -0.613833,-1.799167 v -0.34925 q 0,-1.153583 0.687916,-1.735667 0.687917,-0.582083 2.021417,-0.582083 1.164166,0 2.455333,0.306917 v 1.629833 q -1.185333,-0.09525 -2.201333,-0.09525 -0.508,0 -0.762,0.127 -0.254,0.116417 -0.254,0.455083 v 0.105834 q 0,0.53975 0.687916,0.53975 h 0.6985 q 1.068917,0 1.640417,0.592666 0.582083,0.592667 0.582083,1.545167 v 0.34925 q 0,0.973667 -0.338666,1.513417 -0.338667,0.529166 -0.963084,0.73025 -0.613833,0.1905 -1.5875,0.1905 z" />
      <path
         id="path10376"
         style="font-style:normal;font-variant:normal;font-weight:normal;font-stretch:normal;font-family:'Exo Black';-inkscape-font-specification:'Exo Black, ';letter-spacing:0.1322917px;fill:url(#linearGradient8781);fill-opacity:1;stroke:url(#Outline);stroke-width:1.66499996;stroke-linecap:round;stroke-linejoin:round;stroke-miterlimit:4;stroke-dasharray:none;stroke-opacity:1;paint-order:stroke markers fill"
         d="m 62.942231,78.413003 q -0.740834,0 -1.164167,-0.465667 -0.423333,-0.465667 -0.423333,-1.248833 v -4.053417 h 2.053166 v 3.407833 q 0,0.306917 0.137584,0.433917 0.148166,0.116417 0.423333,0.116417 0.169333,0 0.41275,-0.09525 0.243417,-0.09525 0.359833,-0.232834 v -3.630083 h 2.053167 v 5.704417 h -1.7145 l -0.338667,-0.550334 q -0.973666,0.613834 -1.799166,0.613834 z" />
      <path
         id="path10378"
         style="font-style:normal;font-variant:normal;font-weight:normal;font-stretch:normal;font-family:'Exo Black';-inkscape-font-specification:'Exo Black, ';letter-spacing:0.1322917px;fill:url(#linearGradient8781);fill-opacity:1;stroke:url(#Outline);stroke-width:1.66499996;stroke-linecap:round;stroke-linejoin:round;stroke-miterlimit:4;stroke-dasharray:none;stroke-opacity:1;paint-order:stroke markers fill"
         d="m 71.410054,78.413003 q -0.508,0 -0.8255,-0.137584 -0.3175,-0.148166 -0.677333,-0.4445 l -0.3175,0.518584 h -1.735667 v -8.075084 h 2.053167 v 2.688167 q 0.783167,-0.41275 1.397,-0.41275 0.762,0 1.195917,0.3175 0.433916,0.306917 0.624416,0.963083 0.1905,0.656167 0.1905,1.735667 0,1.49225 -0.47625,2.169583 -0.465666,0.677334 -1.42875,0.677334 z m -0.804333,-1.661584 q 0.296333,0 0.47625,-0.254 0.179917,-0.264583 0.179917,-1.037166 0,-0.550334 -0.09525,-0.8255 -0.09525,-0.28575 -0.232834,-0.359834 -0.137583,-0.08467 -0.328083,-0.08467 -0.179917,0 -0.402167,0.07408 -0.211666,0.0635 -0.296333,0.137583 v 2.19075 q 0.275167,0.15875 0.6985,0.15875 z" />
      <path
         id="path10380"
         style="font-style:normal;font-variant:normal;font-weight:normal;font-stretch:normal;font-family:'Exo Black';-inkscape-font-specification:'Exo Black, ';letter-spacing:0.1322917px;fill:url(#linearGradient8781);fill-opacity:1;stroke:url(#Outline);stroke-width:1.66499996;stroke-linecap:round;stroke-linejoin:round;stroke-miterlimit:4;stroke-dasharray:none;stroke-opacity:1;paint-order:stroke markers fill"
         d="m 74.22886,72.645086 h 1.7145 l 0.338666,0.550333 q 0.423334,-0.3175 0.79375,-0.47625 0.381,-0.169333 0.963084,-0.169333 0.508,0 0.85725,0.211667 0.34925,0.201083 0.53975,0.560916 1.016,-0.772583 1.799166,-0.772583 1.037167,0 1.42875,0.53975 0.391584,0.53975 0.391584,1.661583 v 3.598334 h -2.053167 v -3.407834 q 0,-0.306916 -0.148167,-0.423333 -0.148166,-0.127 -0.41275,-0.127 -0.211666,0 -0.423333,0.09525 -0.211667,0.09525 -0.34925,0.232833 v 0.264584 3.3655 h -2.053167 v -3.407834 q 0,-0.306916 -0.148166,-0.423333 -0.148167,-0.127 -0.41275,-0.127 -0.211667,0 -0.423334,0.09525 -0.211666,0.09525 -0.34925,0.232833 v 3.630084 H 74.22886 Z" />
      <path
         id="path10382"
         style="font-style:normal;font-variant:normal;font-weight:normal;font-stretch:normal;font-family:'Exo Black';-inkscape-font-specification:'Exo Black, ';letter-spacing:0.1322917px;fill:url(#linearGradient8781);fill-opacity:1;stroke:url(#Outline);stroke-width:1.66499996;stroke-linecap:round;stroke-linejoin:round;stroke-miterlimit:4;stroke-dasharray:none;stroke-opacity:1;paint-order:stroke markers fill"
         d="m 84.329825,71.925419 q -0.116417,0 -0.1905,-0.0635 -0.0635,-0.07408 -0.0635,-0.179916 v -1.17475 q 0,-0.127 0.0635,-0.1905 0.0635,-0.07408 0.1905,-0.07408 h 1.608666 q 0.116417,0 0.169334,0.07408 0.0635,0.07408 0.0635,0.1905 v 1.17475 q 0,0.243416 -0.232834,0.243416 z m -0.232834,0.719667 h 2.053167 v 5.704417 h -2.053167 z" />
      <path
         id="path10384"
         style="font-style:normal;font-variant:normal;font-weight:normal;font-stretch:normal;font-family:'Exo Black';-inkscape-font-specification:'Exo Black, ';letter-spacing:0.1322917px;fill:url(#linearGradient8781);fill-opacity:1;stroke:url(#Outline);stroke-width:1.66499996;stroke-linecap:round;stroke-linejoin:round;stroke-miterlimit:4;stroke-dasharray:none;stroke-opacity:1;paint-order:stroke markers fill"
         d="m 89.565927,78.349503 q -0.751417,0 -1.185333,-0.201084 -0.423334,-0.201083 -0.613834,-0.66675 -0.1905,-0.465666 -0.15875,-1.280583 l 0.0635,-1.926167 h -0.878416 v -1.312333 l 0.963083,-0.3175 0.254,-1.598083 h 1.629833 v 1.598083 h 1.153584 v 1.629833 H 89.64001 v 1.915584 q 0,0.275166 0.08467,0.41275 0.09525,0.127 0.296333,0.148166 l 0.73025,0.07408 v 1.524 z" />
    </g>
    <path
       id="path4248"
       d="m 59.81072,71.632779 c -0.0086,-0.172501 0.02851,-0.353971 -0.02826,-0.517831 -0.02093,-0.0605 -0.08172,-0.0969 -0.130847,-0.13376 -0.25672,-0.19266 -0.587394,-0.2469 -0.899883,-0.23796 -0.086,0.002 -0.192362,-0.0459 -0.260889,0.0145 -0.08246,0.0727 -0.09042,0.19329 -0.09859,0.29601 -0.01445,0.18166 0.09782,0.349 0.246996,0.445641 0.172405,0.111689 0.381934,0.133089 0.583952,0.15607 0.141737,0.0161 0.284699,0.0444 0.429122,0.003 0.05149,-0.0147 0.104661,-0.0258 0.158403,-0.0257 z"
       style="display:inline;opacity:1;fill:url(#Shading);stroke:none;stroke-width:0.26458332px;stroke-linecap:butt;stroke-linejoin:miter;stroke-opacity:1" />
    <path
       id="path4252"
       d="m 59.919188,74.835284 c 0.01326,-0.19572 -0.104719,-0.36918 -0.232547,-0.50897 -0.100097,-0.10946 -0.179044,-0.26177 -0.328092,-0.30441 -0.05869,-0.0168 -0.118599,-0.0243 -0.179501,-0.0332 -0.06199,-0.009 -0.145584,-0.04 -0.191219,0.0225 -0.10414,0.14272 -0.116877,0.33119 -0.101095,0.50072 0.02045,0.2197 0.08465,0.44718 0.235982,0.614599 0.09099,0.100671 0.232709,0.10881 0.369144,0.0928 0.06225,-0.007 0.106278,-0.0635 0.170061,-0.0664 0.07367,-0.003 0.146423,-0.0512 0.186108,-0.11265 0.03977,-0.0616 0.05292,-0.135309 0.07116,-0.204979 z"
       style="display:inline;opacity:1;fill:url(#Shading);stroke:none;stroke-width:0.26458332px;stroke-linecap:butt;stroke-linejoin:miter;stroke-opacity:1" />
    <path
       id="path4256"
       d="m 63.171404,73.809519 c -0.01868,-0.24633 0.129083,-0.57588 -0.06354,-0.7413 -0.249872,-0.21458 -0.627684,-0.17949 -0.700744,0.23566 -0.05419,0.3079 -0.07101,0.74676 0.281787,0.88885 0.357246,0.14388 0.321683,-0.21707 0.482499,-0.38321 z"
       style="display:inline;opacity:1;fill:url(#Shading);stroke:none;stroke-width:0.26458332px;stroke-linecap:butt;stroke-linejoin:miter;stroke-opacity:1" />
    <path
       id="path4260"
       d="m 66.374346,74.664065 c 0.02785,-0.54825 0.39701,-1.25855 0.02117,-1.65203 -0.608206,-0.63675 -0.752586,0.28901 -0.927593,0.8693 -0.162229,0.53792 0.263259,1.47959 0.818759,0.778 0,0 0.0029,-0.0165 0.0029,-0.0165 0,0 0.08472,0.0212 0.08472,0.0212 0,0 8e-6,0 8e-6,0 z"
       style="display:inline;opacity:1;fill:url(#Shading);stroke:none;stroke-width:0.26458332px;stroke-linecap:butt;stroke-linejoin:miter;stroke-opacity:1" />
    <path
       id="path4268"
       d="m 72.671124,73.589604 c 0.0073,-0.61192 -0.597667,-0.84558 -1.09837,-0.7448 -0.677815,0.13643 -0.150675,0.77103 0.270312,0.92632 0.362971,0.13389 1.124868,0.67474 0.828058,-0.18152 z"
       style="display:inline;opacity:1;fill:url(#Shading);stroke:none;stroke-width:0.26458332px;stroke-linecap:butt;stroke-linejoin:miter;stroke-opacity:1" />
    <path
       id="path4276"
       d="m 82.734321,74.307027 c -0.02011,-0.368141 -0.14736,-0.723591 -0.265829,-1.068961 -0.113581,-0.33112 -0.561211,-0.42659 -0.82989,-0.185 -0.282501,0.25401 -0.216911,0.61894 -0.02469,0.90539 0.186319,0.27766 0.474588,0.50106 0.784219,0.64025 0.276749,0.12441 0.29614,-0.0688 0.33619,-0.291679 z"
       style="display:inline;opacity:1;fill:url(#Shading);stroke:none;stroke-width:0.26458332px;stroke-linecap:butt;stroke-linejoin:miter;stroke-opacity:1" />
    <path
       id="path4280"
       d="m 79.095284,73.389819 c -0.0283,-0.20066 -0.197882,-0.34004 -0.306972,-0.49685 -0.11534,-0.1658 -0.475049,-0.18335 -0.574749,-0.0117 -0.128609,0.22149 -0.113131,0.519421 0.0981,0.656731 0.192251,0.124999 0.42228,0.26752 0.68849,0.075 0.0732,-0.0529 0.10273,-0.13451 0.0952,-0.22323 z"
       style="display:inline;opacity:1;fill:url(#Shading);stroke:none;stroke-width:0.26458332px;stroke-linecap:butt;stroke-linejoin:miter;stroke-opacity:1" />
    <path
       id="path4288"
       d="m 75.981842,73.537635 c -0.0163,-0.21161 0.122471,-0.51797 -0.0635,-0.63539 -0.319108,-0.20149 -0.80514,-0.0213 -0.553778,0.44493 0.115668,0.21457 0.5051,0.68327 0.617278,0.19046 z"
       style="display:inline;opacity:1;fill:url(#Shading);stroke:none;stroke-width:0.26458332px;stroke-linecap:butt;stroke-linejoin:miter;stroke-opacity:1" />
    <path
       id="path4300"
       d="m 85.853558,70.66542 c -0.597639,-0.58191 -0.910321,0.47163 -0.1216,0.45175 0.18846,-0.005 0.35923,-0.39505 0.1216,-0.45175 z"
       style="display:inline;opacity:1;fill:url(#Shading);stroke:none;stroke-width:0.29743835px;stroke-linecap:butt;stroke-linejoin:miter;stroke-opacity:1" />
    <path
       id="path4306"
       d="m 85.869821,74.289302 c 0.0301,-0.42613 0.323843,-1.34128 -0.270488,-1.36675 -0.799132,-0.0342 -0.10295,1.04623 -0.20777,1.47994 -0.116472,0.48194 0.339551,0.45216 0.411099,0.31267 0.0683,-0.13312 0.0316,-0.2858 0.0672,-0.42586 z"
       style="display:inline;opacity:1;fill:url(#Shading);stroke:none;stroke-width:0.26458332px;stroke-linecap:butt;stroke-linejoin:miter;stroke-opacity:1" />
    <path
       id="path4314"
       d="m 89.464369,71.600786 c 0.0336,-0.15519 -0.0532,-0.31618 -0.23313,-0.33309 -0.153548,-0.0144 -0.314079,0.0129 -0.44337,0.0881 -0.14323,0.0833 -0.213,0.28447 -0.21244,0.45993 7.94e-4,0.22955 0.22909,0.37041 0.442831,0.38275 0.173231,0.01 0.388199,-0.0788 0.403749,-0.28005 0.008,-0.10678 0.052,-0.20826 0.0424,-0.31768 z"
       style="display:inline;opacity:1;fill:url(#Shading);stroke:none;stroke-width:0.26458332px;stroke-linecap:butt;stroke-linejoin:miter;stroke-opacity:1" />
    <path
       id="path4318"
       d="m 90.593822,73.594263 c 0.0497,-0.12155 0.0316,-0.2577 0.01339,-0.38324 -0.0305,-0.21043 -0.254738,-0.35281 -0.45969,-0.31093 -0.0969,0.0198 -0.24824,0.0539 -0.251179,0.15523 -0.003,0.10361 -0.0475,0.19594 -0.0592,0.29804 -0.0173,0.15147 0.134461,0.24637 0.263901,0.27728 0.161351,0.0385 0.340709,0.0346 0.49276,-0.0364 z"
       style="display:inline;opacity:1;fill:url(#Shading);stroke:none;stroke-width:0.26458332px;stroke-linecap:butt;stroke-linejoin:miter;stroke-opacity:1" />
    <path
       id="path4327"
       d="m 98.008823,73.700028 6.364967,-0.03 -0.8237,-0.62901 c 0,0 -0.62901,-0.89858 0.49422,-1.8421 0.8777,-0.73726 1.5276,0.0899 1.5276,0.0899 l 3.13007,2.80059 c 0,0 0.40436,0.40436 0.38938,0.88361 -0.015,0.47924 -0.20967,0.64398 -0.20967,0.64398 l -3.16002,3.20496 c 0,0 -0.80873,0.643981 -1.52759,0.0899 -0.71887,-0.55413 -0.83868,-0.79375 -0.61404,-1.36286 l 0.71887,-1.0783 -6.320046,0.0449 c 0,0 -1.153181,-0.28455 -1.153181,-1.3928 0,-1.10826 1.18314,-1.42276 1.18314,-1.42276 z"
       style="display:inline;opacity:1;fill:#80ac40;fill-opacity:1;stroke:url(#Outline);stroke-width:1.66499996;stroke-linecap:round;stroke-linejoin:round;stroke-miterlimit:4;stroke-dasharray:none;stroke-opacity:1;paint-order:stroke markers fill" />
    <path
       id="path4349"
       d="m 97.642793,74.431588 c -0.344379,0.22064 -0.35088,0.76215 -0.22165,1.12825 0.14386,0.40753 0.609929,0.42419 0.970519,0.5179 0.453742,0.11792 0.920551,-0.0195 1.381701,0.0542 0.336297,0.0538 0.893807,-0.005 0.821507,-0.42182 -0.0684,-0.39472 -0.45003,-0.57425 -0.768347,-0.71916 -0.33601,-0.15296 -0.649229,-0.35632 -0.99202,-0.49766 -0.349279,-0.14402 -0.805609,-0.34531 -1.14435,-0.0999 0,0 -0.0474,0.0382 -0.0474,0.0382 0,0 0,1e-5 0,1e-5 z"
       style="display:inline;opacity:1;fill:url(#linearGradient4357);fill-opacity:1;stroke:none;stroke-width:0.26499999;stroke-linecap:butt;stroke-linejoin:miter;stroke-miterlimit:4;stroke-dasharray:none;stroke-opacity:1" />
    <path
       id="path4359"
       d="m 104.86142,77.007528 c -0.19837,-0.0676 -0.41335,0.0513 -0.5501,0.18534 -0.14177,0.13892 -0.24755,0.33049 -0.27484,0.52553 -0.0348,0.24874 0.20822,0.41419 0.42668,0.45726 0.24417,0.0481 0.58309,0.0572 0.71378,-0.16903 0.10349,-0.17914 0.30011,-0.42619 0.17636,-0.59744 -0.0981,-0.13573 -0.2507,-0.21119 -0.37207,-0.35668 -0.035,-0.042 -0.0612,-0.0888 -0.11981,-0.045 z"
       style="display:inline;opacity:1;fill:url(#Dark_green);stroke:none;stroke-width:0.26458332px;stroke-linecap:butt;stroke-linejoin:miter;stroke-opacity:1" />
    <path
       id="path4363"
       d="m 106.76342,73.098688 c -0.29067,-0.27894 -0.45818,-0.65642 -0.74776,-0.93907 -0.27471,-0.26814 -0.63323,-0.61309 -1.02748,-0.53335 -0.43821,0.0886 -0.30943,0.64361 -0.14647,0.93076 0.1547,0.2726 0.49598,0.36116 0.73524,0.54517 0.2961,0.22772 0.6808,0.343651 1.06647,0.40055 0.27341,0.0403 0.31586,-0.26865 0.12,-0.40406 z"
       style="display:inline;opacity:1;fill:url(#Pale_yellow);stroke:none;stroke-width:0.26458332px;stroke-linecap:butt;stroke-linejoin:miter;stroke-opacity:1" />
    <path
       id="path4367"
       d="m 108.35093,74.521449 c -0.10646,-0.22303 -0.37676,-0.271191 -0.58378,-0.24697 -0.16377,0.0192 -0.43001,-0.0371 -0.48882,0.154659 -0.0495,0.16141 -0.13718,0.32476 -0.0685,0.51613 0.0669,0.18648 0.22295,0.27598 0.4186,0.31161 0.24351,0.0443 0.58627,-0.007 0.67083,-0.27042 0.0475,-0.148199 0.1649,-0.3159 0.0517,-0.465009 z"
       style="display:inline;opacity:1;fill:url(#Pale_yellow);stroke:none;stroke-width:0.26458332px;stroke-linecap:butt;stroke-linejoin:miter;stroke-opacity:1" />
    <path
       id="path7669"
       d="m 69.674054,70.96579 c 0.0075,-0.153222 -0.02157,-0.389552 -0.192932,-0.424973 -0.158566,-0.03278 -0.384166,-0.118789 -0.419823,0.134414 -0.03358,0.238471 -0.139487,0.662374 0.0954,0.709371 0.142886,0.02859 0.289865,0.252298 0.41716,0.117472 0.128719,-0.136334 0.123069,-0.362448 0.100192,-0.536284 z"
       style="opacity:1;fill:url(#Shading);fill-opacity:1;stroke:none;stroke-width:0.26458332px;stroke-linecap:butt;stroke-linejoin:miter;stroke-opacity:1" />
  </g>
</svg>
